<?xml version="1.0" standalone="no"?><!DOCTYPE svg PUBLIC "-//W3C//DTD SVG 1.1//EN" "http://www.w3.org/Graphics/SVG/1.1/DTD/svg11.dtd"><svg t="1642922528781" class="icon" viewBox="0 0 1024 1024" version="1.1" xmlns="http://www.w3.org/2000/svg" p-id="6345" xmlns:xlink="http://www.w3.org/1999/xlink" width="200" height="200"><defs><style type="text/css"></style></defs><path d="M734.0032 287.9488h-128l95.9488-256H413.9008l-128 320.1024h128l-128 384h160.0512v256L637.952 640h-96.0512z" fill="#F0EEE2" p-id="6346"></path><path d="M734.0032 287.9488h-64.1024L333.9264 736.0512h112.0256v256L637.952 640h-96.0512z" fill="#BBAA9C" p-id="6347"></path><path d="M461.9264 287.9488c8.8064 0 15.9744-7.168 15.9744-15.9744s-7.168-15.9744-15.9744-15.9744-15.9744 7.168-15.9744 15.9744c0 8.9088 7.168 15.9744 15.9744 15.9744z m112.0256 320.1024h-79.9744c-8.8064 0-15.9744 7.168-15.9744 15.9744s7.168 15.9744 15.9744 15.9744h79.9744c8.8064 0 15.9744-7.168 15.9744-15.9744s-7.168-15.9744-15.9744-15.9744zM413.9008 512h-48.0256c-8.8064-0.2048-16.1792 6.7584-16.384 15.5648s6.7584 16.1792 15.5648 16.384H413.9008c8.8064-0.2048 15.7696-7.5776 15.5648-16.384-0.1024-8.4992-6.9632-15.36-15.5648-15.5648zM637.952 159.9488h-79.9744c-8.8064 0-15.9744 7.168-15.9744 15.9744s7.168 15.9744 15.9744 15.9744H637.952c8.8064 0 15.9744-7.168 15.9744-15.9744s-7.168-15.9744-15.9744-15.9744zM509.952 399.9744c0 8.8064 7.168 15.9744 15.9744 15.9744h48.0256l15.9744-31.9488h-64c-8.8064 0-15.9744 7.168-15.9744 15.9744zM478.0032 128H509.952c8.8064 0 15.9744-7.168 15.9744-15.9744s-7.168-15.9744-15.9744-15.9744h-31.9488c-8.8064 0-15.9744 7.168-15.9744 15.9744s7.0656 15.9744 15.9744 15.9744z m15.9744 608.0512h-31.9488c-8.8064 0.2048-15.7696 7.5776-15.5648 16.384 0.2048 8.4992 7.0656 15.36 15.5648 15.5648h31.9488c8.8064-0.2048 15.7696-7.5776 15.5648-16.384-0.2048-8.4992-7.0656-15.36-15.5648-15.5648z" fill="#D8D5BA" p-id="6348"></path><path d="M669.9008 640c0-17.7152-14.336-31.9488-31.9488-31.9488h-42.0864l166.0928-304.5376c8.4992-15.4624 2.9696-34.9184-12.5952-43.52-4.7104-2.6624-10.0352-3.9936-15.4624-3.9936h-81.8176l79.7696-212.5824c6.3488-16.4864-1.9456-35.0208-18.5344-41.2672C709.632 0.7168 705.8432 0 701.952 0H413.9008c-13.1072 0-24.8832 7.9872-29.696 20.0704L256.512 339.456c-0.1024 0.2048-0.1024 0.3072-0.2048 0.512v0.1024c-6.5536 16.384 1.4336 35.0208 17.8176 41.5744 3.7888 1.536 7.7824 2.2528 11.8784 2.2528H369.664L256 724.7872c-6.144 16.5888 2.3552 35.0208 18.944 41.1648 3.584 1.3312 7.2704 1.9456 11.0592 1.9456h128v224.0512c0 17.7152 14.336 32.0512 31.9488 32.0512 11.776 0 22.6304-6.5536 28.2624-16.896l191.7952-351.5392c2.56-4.8128 3.9936-10.1376 3.8912-15.5648z m-191.8976 96.0512c0-17.7152-14.336-31.9488-31.9488-31.9488h-57.7536l278.016-384h13.7216L513.9456 624.5376c-8.4992 15.4624-2.8672 34.9184 12.5952 43.52 4.7104 2.56 10.0352 3.9936 15.4624 3.9936h42.0864l-106.0864 194.56V736.0512z m-33.9968-372.9408c6.144-16.5888-2.3552-35.0208-18.944-41.1648-3.584-1.3312-7.2704-1.9456-11.0592-1.9456h-80.6912l102.4-256h220.16l-79.7696 212.5824c-6.3488 16.4864 1.9456 35.0208 18.432 41.2672 3.6864 1.4336 7.4752 2.1504 11.3664 2.1504h21.2992L349.184 704h-18.8416l113.664-340.8896z" fill="#5F4E56" p-id="6349"></path></svg>